<svg xmlns="http://www.w3.org/2000/svg" width="199.45" height="154.892" viewBox="0 0 199.45 154.892">
  <g id="Icon_ionic-logo-designernews" data-name="Icon ionic-logo-designernews" transform="translate(-2.25 -6.75)">
    <path id="Path_1" data-name="Path 1" d="M20.419,10.2,15.961,6.75l4.472,7.186Z" transform="translate(85.198)"/>
    <path id="Path_2" data-name="Path 2" d="M134.475,6.75v78.9H118.269L90.133,37.922l.757,47.726H73.037V33.856L56.431,19.674c.445.581.89,1.162,1.291,1.791C62.174,28.193,64.4,36.228,64.4,45.909c0,23.815-13.623,39.739-34.236,39.739H2.25v.194l88.862,75.8H201.7V63.915Z"/>
    <path id="Path_3" data-name="Path 3" d="M9.134,12.523c0-2.039-1-3.171-2.791-3.171H4.992v6.258H6.328C8.156,15.609,9.134,14.527,9.134,12.523Z"/>
  </g>
</svg>
