<svg xmlns="http://www.w3.org/2000/svg" width="182.87" height="147.679" viewBox="0 0 182.87 147.679">
  <path id="Icon_awesome-network-wired" data-name="Icon awesome-network-wired" d="M182.87,76.147V71.532a4.592,4.592,0,0,0-4.572-4.615H98.292V55.38h20.573a9.188,9.188,0,0,0,9.143-9.23V9.23A9.188,9.188,0,0,0,118.865,0H64a9.188,9.188,0,0,0-9.143,9.23V46.15A9.188,9.188,0,0,0,64,55.38H84.577V66.917H4.572A4.592,4.592,0,0,0,0,71.532v4.615a4.592,4.592,0,0,0,4.572,4.615H34.288V92.3h-16a9.188,9.188,0,0,0-9.143,9.23v36.92a9.188,9.188,0,0,0,9.143,9.23H64a9.188,9.188,0,0,0,9.143-9.23v-36.92A9.188,9.188,0,0,0,64,92.3H48V80.762h86.863V92.3h-16a9.188,9.188,0,0,0-9.143,9.23v36.92a9.188,9.188,0,0,0,9.143,9.23h45.717a9.188,9.188,0,0,0,9.143-9.23v-36.92a9.188,9.188,0,0,0-9.143-9.23h-16V80.762H178.3A4.592,4.592,0,0,0,182.87,76.147ZM73.148,36.92V18.46h36.574V36.92Zm-18.287,92.3H27.43v-18.46h27.43Zm100.578,0h-27.43v-18.46h27.43Z"/>
</svg>
