<svg xmlns="http://www.w3.org/2000/svg" width="180.528" height="146.642" viewBox="0 0 180.528 146.642">
  <path id="Icon_awesome-search" data-name="Icon awesome-search" d="M178.073,126.782,142.917,98.229a9.546,9.546,0,0,0-5.995-2h-5.748C140.907,86.115,146.69,73.4,146.69,59.568,146.69,26.662,113.861,0,73.345,0S0,26.662,0,59.568s32.829,59.568,73.345,59.568a84.3,84.3,0,0,0,45.135-12.6V111.2a6.284,6.284,0,0,0,2.468,4.869l35.156,28.552a9.856,9.856,0,0,0,11.954,0l9.979-8.1A6.029,6.029,0,0,0,178.073,126.782ZM73.345,96.225c-24.93,0-45.135-16.381-45.135-36.657,0-20.247,20.17-36.657,45.135-36.657,24.93,0,45.135,16.381,45.135,36.657C118.48,79.815,98.311,96.225,73.345,96.225Z"/>
</svg>
