<svg xmlns="http://www.w3.org/2000/svg" width="165.732" height="146.551" viewBox="0 0 165.732 146.551">
  <path id="Icon_ionic-ios-settings" data-name="Icon ionic-ios-settings" d="M156.551,77.757c0-8.012,5.654-14.842,13.682-17.589A70.262,70.262,0,0,0,160,38.381a24.046,24.046,0,0,1-8.675,1.641,22.868,22.868,0,0,1-15.063-5.494c-6.431-5.685-7.855-14.041-4.4-20.985a90.659,90.659,0,0,0-24.6-9.043c-3.064,7.059-10.833,12.095-19.9,12.095S70.534,11.559,67.47,4.5a90.948,90.948,0,0,0-24.644,9.043c3.5,6.906,2.028,15.3-4.4,20.985a22.786,22.786,0,0,1-15.063,5.494,23.26,23.26,0,0,1-8.675-1.641A71.768,71.768,0,0,0,4.5,60.205c7.984,2.709,13.682,9.539,13.682,17.589,0,8.012-5.654,14.842-13.638,17.589A70.261,70.261,0,0,0,14.772,117.17a23.951,23.951,0,0,1,8.632-1.6,22.868,22.868,0,0,1,15.063,5.494c6.388,5.647,7.855,14.041,4.4,20.947a91.481,91.481,0,0,0,24.644,9.043c3.064-7.059,10.79-12.057,19.853-12.057s16.789,5,19.853,12.057a90.949,90.949,0,0,0,24.644-9.043c-3.453-6.906-1.985-15.262,4.4-20.947a22.706,22.706,0,0,1,15.063-5.494,23.781,23.781,0,0,1,8.632,1.6,70.669,70.669,0,0,0,10.229-21.786C162.248,92.637,156.551,85.807,156.551,77.757Zm-68.8,30.485c-19.12,0-34.528-13.7-34.528-30.524S68.635,47.195,87.754,47.195s34.528,13.7,34.528,30.524S106.874,108.242,87.754,108.242Z" transform="translate(-4.5 -4.5)"/>
</svg>
