<svg xmlns="http://www.w3.org/2000/svg" width="152.77" height="140.039" viewBox="0 0 152.77 140.039">
  <path id="Icon_simple-webpack" data-name="Icon simple-webpack" d="M151.572,110.506,82.9,142.611V117.606l42.787-19.452,25.885,12.353Zm4.7-3.516V39.849L131.139,51.836V94.99ZM8.2,110.506l68.673,32.1V117.606L34.083,98.153,8.2,110.506ZM3.5,106.99V39.849l25.13,11.987V94.99l-25.13,12ZM6.44,35.5,76.87,2.572V26.749L31.75,47.26l-.344.163L6.44,35.5Zm146.89,0L82.9,2.572V26.749l45.121,20.512.344.163,24.966-11.919ZM76.871,111.918,34.658,92.737V54.727L76.87,74.873v37.046Zm6.027,0,42.212-19.181V54.727L82.9,74.873v37.046ZM37.516,50.328,79.892,31.065l42.377,19.264L79.892,70.555Z" transform="translate(-3.5 -2.572)"/>
</svg>
